<svg xmlns="http://www.w3.org/2000/svg" width="1280" height="720" viewBox="0 0 1280 720" role="img" aria-labelledby="title desc"><title id="title">Hospital Process Management guide image</title><desc id="desc">Demo guide image with fictitious process and KPI data.</desc><rect width="1280" height="720" fill="#f8fafc"/><rect x="58" y="44" width="1164" height="632" rx="24" fill="#fff" stroke="#dbe4f0"/><text x="96" y="100" font-family="Inter,Arial" font-size="31" font-weight="700" fill="#0f172a">Hospital Process Management</text><text x="96" y="130" font-family="Inter,Arial" font-size="15" fill="#64748b">Imagem demonstrativa - indicadores e fluxos ficticios</text><rect x="96" y="172" width="265" height="118" rx="16" fill="#ecfeff" stroke="#a5f3fc"/><text x="126" y="216" font-family="Inter,Arial" font-size="16" fill="#0e7490">KPIs monitorados</text><text x="126" y="258" font-family="Inter,Arial" font-size="38" font-weight="700" fill="#164e63">32</text><rect x="392" y="172" width="265" height="118" rx="16" fill="#ecfdf5" stroke="#a7f3d0"/><text x="422" y="216" font-family="Inter,Arial" font-size="16" fill="#047857">Tarefas no prazo</text><text x="422" y="258" font-family="Inter,Arial" font-size="38" font-weight="700" fill="#064e3b">88%</text><rect x="688" y="172" width="265" height="118" rx="16" fill="#fef2f2" stroke="#fecaca"/><text x="718" y="216" font-family="Inter,Arial" font-size="16" fill="#b91c1c">Alertas</text><text x="718" y="258" font-family="Inter,Arial" font-size="38" font-weight="700" fill="#7f1d1d">05</text><rect x="96" y="340" width="858" height="230" rx="18" fill="#fff" stroke="#dbe4f0"/><text x="130" y="388" font-family="Inter,Arial" font-size="20" font-weight="700" fill="#0f172a">Linha de acompanhamento</text><circle cx="182" cy="474" r="20" fill="#22c55e"/><line x1="202" y1="474" x2="372" y2="474" stroke="#cbd5e1" stroke-width="6"/><circle cx="392" cy="474" r="20" fill="#3b82f6"/><line x1="412" y1="474" x2="582" y2="474" stroke="#cbd5e1" stroke-width="6"/><circle cx="602" cy="474" r="20" fill="#f97316"/><line x1="622" y1="474" x2="792" y2="474" stroke="#cbd5e1" stroke-width="6"/><circle cx="812" cy="474" r="20" fill="#94a3b8"/></svg>